<svg id="Layer_1" data-name="Layer 1" xmlns="http://www.w3.org/2000/svg" viewBox="0 0 800 800"><title>Skfiles2</title><path d="M476.46,290.16c-17.44,31.94-35.27,64.42-52.94,97-7.49,13.81-6.7,17.11,4.88,24.22,8.66,5.32,17.41,10.5,26,16,6.76,4.31,7.31,9.77.12,16.12Q391.71,499,339,554.41c-4.51,4.73-11.05,13.86-16.71,7.26-4.91-5.73,3.25-12.31,6.42-18.18,16.76-31.07,33.65-62.07,50.36-93.17,4.42-8.24,3.44-15-3.18-20.09-7.23-5.52-14.36-11.22-21.28-17.2-6.37-5.51-5.93-11.56,1.12-18.13,38.37-35.75,74.5-74.44,111.26-112.31,3-3.13,6.42-9,10.75-5.24C481.13,280.31,478,285.37,476.46,290.16Z"/></svg>